<svg xmlns="http://www.w3.org/2000/svg" width="492" height="487" viewBox="0 0 492 487">
  <g id="hero-design" transform="translate(-1071 -299)">
    <g id="Path_3" data-name="Path 3" transform="translate(1194 540)" fill="#07ddff">
      <path d="M 61.5 122.5 C 53.26483154296875 122.5 45.27626037597656 120.8872451782227 37.75619888305664 117.7065200805664 C 34.14181518554688 116.1777725219727 30.65569305419922 114.2855529785156 27.39467620849609 112.0824584960938 C 24.16450691223145 109.9001998901367 21.12698554992676 107.3940124511719 18.36649322509766 104.6335220336914 C 15.60598468780518 101.8730163574219 13.09980010986328 98.83549499511719 10.91755390167236 95.60533905029297 C 8.714446067810059 92.34432220458984 6.822230815887451 88.85820007324219 5.293477058410645 85.24379730224609 C 2.112753868103027 77.72373962402344 0.5 69.73516845703125 0.5 61.5 C 0.5 53.26483154296875 2.112753868103027 45.27626037597656 5.293477058410645 37.75619888305664 C 6.822230815887451 34.14181518554688 8.714446067810059 30.65569305419922 10.91755390167236 27.39467620849609 C 13.09980010986328 24.16450691223145 15.60598468780518 21.12698554992676 18.36649322509766 18.36649322509766 C 21.12698554992676 15.60598468780518 24.16450691223145 13.09980010986328 27.39467620849609 10.91755390167236 C 30.65569305419922 8.714446067810059 34.14181518554688 6.822230815887451 37.75619888305664 5.293477058410645 C 45.27626037597656 2.112753868103027 53.26483154296875 0.5 61.5 0.5 C 69.73516845703125 0.5 77.72373962402344 2.112753868103027 85.24379730224609 5.293477058410645 C 88.85820007324219 6.822230815887451 92.34432220458984 8.714446067810059 95.60533905029297 10.91755390167236 C 98.83549499511719 13.09980010986328 101.8730163574219 15.60598468780518 104.6335220336914 18.36649322509766 C 107.3940124511719 21.12698554992676 109.9001998901367 24.16450691223145 112.0824584960938 27.39467620849609 C 114.2855529785156 30.65569305419922 116.1777725219727 34.14181518554688 117.7065200805664 37.75619888305664 C 120.8872451782227 45.27626037597656 122.5 53.26483154296875 122.5 61.5 C 122.5 69.73516845703125 120.8872451782227 77.72373962402344 117.7065200805664 85.24379730224609 C 116.1777725219727 88.85820007324219 114.2855529785156 92.34432220458984 112.0824584960938 95.60533905029297 C 109.9001998901367 98.83549499511719 107.3940124511719 101.8730163574219 104.6335220336914 104.6335220336914 C 101.8730163574219 107.3940124511719 98.83549499511719 109.9001998901367 95.60533905029297 112.0824584960938 C 92.34432220458984 114.2855529785156 88.85820007324219 116.1777725219727 85.24379730224609 117.7065200805664 C 77.72373962402344 120.8872451782227 69.73516845703125 122.5 61.5 122.5 Z" stroke="none"/>
      <path d="M 61.5 1 C 53.33211517333984 1 45.40906524658203 2.599464416503906 37.95096588134766 5.753982543945312 C 34.36631774902344 7.270164489746094 30.90883636474609 9.146835327148438 27.67456817626953 11.33184814453125 C 24.47078704833984 13.49629974365234 21.45803070068359 15.98203277587891 18.72003173828125 18.72003173828125 C 15.98203277587891 21.45803070068359 13.49629974365234 24.47078704833984 11.33184814453125 27.67456817626953 C 9.146835327148438 30.90883636474609 7.270164489746094 34.36631774902344 5.753982543945312 37.95096588134766 C 2.599464416503906 45.40906524658203 1 53.33211517333984 1 61.5 C 1 69.66788482666016 2.599464416503906 77.59093475341797 5.753982543945312 85.04903411865234 C 7.270164489746094 88.63368225097656 9.146835327148438 92.09117126464844 11.33184814453125 95.32543182373047 C 13.49629974365234 98.52922058105469 15.98203277587891 101.5419692993164 18.72003173828125 104.2799682617188 C 21.45803070068359 107.0179672241211 24.47078704833984 109.5037002563477 27.67456817626953 111.6681518554688 C 30.90883636474609 113.8531646728516 34.36631774902344 115.7298355102539 37.95096588134766 117.2460174560547 C 45.40906524658203 120.4005355834961 53.33211517333984 122 61.5 122 C 69.66788482666016 122 77.59093475341797 120.4005355834961 85.04903411865234 117.2460174560547 C 88.63368225097656 115.7298355102539 92.09117126464844 113.8531646728516 95.32543182373047 111.6681518554688 C 98.52922058105469 109.5037002563477 101.5419692993164 107.0179672241211 104.2799682617188 104.2799682617188 C 107.0179672241211 101.5419692993164 109.5037002563477 98.52922058105469 111.6681518554688 95.32543182373047 C 113.8531646728516 92.09117126464844 115.7298355102539 88.63368225097656 117.2460174560547 85.04903411865234 C 120.4005355834961 77.59093475341797 122 69.66788482666016 122 61.5 C 122 53.33211517333984 120.4005355834961 45.40906524658203 117.2460174560547 37.95096588134766 C 115.7298355102539 34.36631774902344 113.8531646728516 30.90883636474609 111.6681518554688 27.67456817626953 C 109.5037002563477 24.47078704833984 107.0179672241211 21.45803070068359 104.2799682617188 18.72003173828125 C 101.5419692993164 15.98203277587891 98.52922058105469 13.49629974365234 95.32543182373047 11.33184814453125 C 92.09117126464844 9.146835327148438 88.63368225097656 7.270164489746094 85.04903411865234 5.753982543945312 C 77.59093475341797 2.599464416503906 69.66788482666016 1 61.5 1 M 61.5 0 C 95.46551513671875 0 123 27.53448486328125 123 61.5 C 123 95.46551513671875 95.46551513671875 123 61.5 123 C 27.53448486328125 123 0 95.46551513671875 0 61.5 C 0 27.53448486328125 27.53448486328125 0 61.5 0 Z" stroke="none" fill="#707070"/>
    </g>
    <g id="Path_2" data-name="Path 2" transform="translate(1317 422)" fill="#ff64cb">
      <path d="M 59.5 117.5 C 51.53430938720703 117.5 43.80720138549805 115.9531402587891 36.53330612182617 112.9023971557617 C 33.03732299804688 111.4361572265625 29.66541481018066 109.6213226318359 26.51126098632812 107.5083236694336 C 23.38703155517578 105.4153671264648 20.44913864135742 103.0117568969727 17.77919960021973 100.3642578125 C 15.10933876037598 97.71682739257812 12.68546199798584 94.80375671386719 10.57487678527832 91.70594024658203 C 8.444199562072754 88.57861328125 6.614200115203857 85.23544311523438 5.135707855224609 81.76929473876953 C 2.059676885604858 74.55784606933594 0.5 66.89714050292969 0.5 59 C 0.5 51.10286331176758 2.059676885604858 43.44215393066406 5.135707855224609 36.23070907592773 C 6.614200115203857 32.76455307006836 8.444199562072754 29.42138481140137 10.57487678527832 26.2940616607666 C 12.68546199798584 23.19624710083008 15.10933876037598 20.28316879272461 17.77919960021973 17.63573837280273 C 20.44913864135742 14.98824596405029 23.38703155517578 12.58463096618652 26.51126098632812 10.49167728424072 C 29.66541481018066 8.378677368164062 33.03732299804688 6.563846111297607 36.53330612182617 5.097599983215332 C 43.80720138549805 2.04686164855957 51.53430938720703 0.5 59.5 0.5 C 67.46569061279297 0.5 75.19281768798828 2.04686164855957 82.46670532226562 5.097599983215332 C 85.96269226074219 6.563846111297607 89.33458709716797 8.378677368164062 92.48873901367188 10.49167728424072 C 95.61296844482422 12.58463096618652 98.55086517333984 14.98824596405029 101.2208023071289 17.63573837280273 C 103.8906631469727 20.28316879272461 106.3145523071289 23.19624710083008 108.4251251220703 26.2940616607666 C 110.5558013916016 29.42138481140137 112.3858032226562 32.76455307006836 113.8642959594727 36.23070907592773 C 116.9403228759766 43.44215393066406 118.5 51.10284805297852 118.5 59 C 118.5 66.89715576171875 116.9403228759766 74.55784606933594 113.8642959594727 81.76929473876953 C 112.3858032226562 85.23544311523438 110.5558013916016 88.57861328125 108.4251251220703 91.70594024658203 C 106.3145523071289 94.80375671386719 103.8906631469727 97.71682739257812 101.2208023071289 100.3642578125 C 98.55086517333984 103.0117568969727 95.61296844482422 105.4153671264648 92.48873901367188 107.5083236694336 C 89.33458709716797 109.6213226318359 85.96269226074219 111.4361572265625 82.46670532226562 112.9023971557617 C 75.19281768798828 115.9531402587891 67.46569061279297 117.5 59.5 117.5 Z" stroke="none"/>
      <path d="M 59.5 1 C 51.60105895996094 1 43.93901824951172 2.533767700195312 36.72667694091797 5.558692932128906 C 33.26033782958984 7.012504577636719 29.91699981689453 8.811965942382812 26.78953552246094 10.90707397460938 C 23.69171142578125 12.98235321044922 20.77863311767578 15.36564636230469 18.13126373291016 17.99078369140625 C 15.48403167724609 20.61576843261719 13.08072662353516 23.50411987304688 10.98807525634766 26.57558441162109 C 8.875663757324219 29.67610931396484 7.061386108398438 32.99055480957031 5.595611572265625 36.4268798828125 C 2.546188354492188 43.57596588134766 1 51.17066192626953 1 59 C 1 66.82933807373047 2.546188354492188 74.42402648925781 5.595611572265625 81.57310485839844 C 7.061386108398438 85.00942993164062 8.875663757324219 88.32389068603516 10.98809051513672 91.42440032958984 C 13.08072662353516 94.49588012695312 15.48403167724609 97.38421630859375 18.13126373291016 100.0092163085938 C 20.77863311767578 102.6343383789062 23.69171142578125 105.0176467895508 26.78953552246094 107.0929260253906 C 29.91699981689453 109.1880340576172 33.26033782958984 110.9874954223633 36.72667694091797 112.4413070678711 C 43.93901824951172 115.4662322998047 51.60105895996094 117 59.5 117 C 67.39894104003906 117 75.06098937988281 115.4662322998047 82.27330780029297 112.4413070678711 C 85.73966217041016 110.9874954223633 89.08300018310547 109.1880340576172 92.21044921875 107.0929260253906 C 95.30828857421875 105.0176467895508 98.22135162353516 102.6343383789062 100.8687362670898 100.0092163085938 C 103.5159683227539 97.38421630859375 105.9192810058594 94.49588012695312 108.0119094848633 91.42440032958984 C 110.1243209838867 88.32389068603516 111.9386138916016 85.00942993164062 113.4043884277344 81.57310485839844 C 116.4538116455078 74.42402648925781 118 66.82933807373047 118 59 C 118 51.17066192626953 116.4538116455078 43.57596588134766 113.4043884277344 36.4268798828125 C 111.9386138916016 32.99055480957031 110.1243209838867 29.67610931396484 108.0119094848633 26.57558441162109 C 105.9192810058594 23.50411987304688 103.5159683227539 20.61576843261719 100.8687362670898 17.99078369140625 C 98.22135162353516 15.36564636230469 95.30828857421875 12.98235321044922 92.21044921875 10.90707397460938 C 89.08300018310547 8.811965942382812 85.73966217041016 7.012504577636719 82.27330780029297 5.558692932128906 C 75.06098937988281 2.533767700195312 67.39894104003906 1 59.5 1 M 59.5 0 C 92.36093902587891 0 119 26.41519927978516 119 59 C 119 91.58478546142578 92.36093902587891 118 59.5 118 C 26.63904571533203 118 0 91.58478546142578 0 59 C 0 26.41519927978516 26.63904571533203 0 59.5 0 Z" stroke="none" fill="#707070"/>
    </g>
    <path id="Path_1" data-name="Path 1" d="M21,0h81a21,21,0,0,1,21,21v81a21,21,0,0,1-21,21H21A21,21,0,0,1,0,102V21A21,21,0,0,1,21,0Z" transform="translate(1317 540)" fill="#6700ee"/>
    <rect id="Rectangle_4" data-name="Rectangle 4" width="123" height="123" rx="21" transform="translate(1317 299)" fill="#6700ee"/>
    <rect id="Rectangle_6" data-name="Rectangle 6" width="123" height="123" rx="21" transform="translate(1440 417)" fill="#6700ee" opacity="0.29"/>
    <rect id="Rectangle_5" data-name="Rectangle 5" width="123" height="123" rx="21" transform="translate(1194 417)" fill="#fff"/>
    <rect id="Rectangle_9" data-name="Rectangle 9" width="123" height="123" rx="21" transform="translate(1194 663)" fill="#fff"/>
    <rect id="Rectangle_7" data-name="Rectangle 7" width="123" height="123" rx="21" transform="translate(1071 540)" fill="#fff" opacity="0.24"/>
  </g>
</svg>
